<?xml version='1.0' encoding='utf-8'?>
<svg xmlns="http://www.w3.org/2000/svg" clip-rule="evenodd" fill-rule="evenodd" stroke-linejoin="round" stroke-miterlimit="2" version="1.1" viewBox="0 0 12500 12500"> <rect width="12500" height="12500" fill="none"/> <rect width="12500" height="12500" fill="#f9d121"/> <path d="m4108.7 5336.8-352.48 79.874-83.564-377.12 352.86-78.189 83.191 375.43z" fill="#d8e0eb"/> <path d="m3900.6 4290.4-398 88.193s135.64 612.13 156.5 706.28c1.48 6.678 8.094 10.893 14.772 9.413 58.862-13.043 314.96-69.791 373.82-82.834 6.679-1.48 10.893-8.093 9.413-14.772-20.862-94.15-156.5-706.28-156.5-706.28z" fill="#636363"/> <circle cx="3589.3" cy="4455.3" r="254.32" fill="#d8e0eb"/> <circle cx="3589.3" cy="4455.3" r="115.6"/> <path d="m4217.5 4171.4c-21.418 0-42.272 6.865-59.503 19.587-66.779 49.304-236.54 174.64-236.54 174.64-103.7 76.566-236.63 101.73-361.14 68.368-166.67-44.659-409.19-109.64-606.62-162.54-186.09-49.864-296.53-241.14-246.67-427.24 0.121-0.453 0.243-0.906 0.364-1.36 49.864-186.09 241.15-296.53 427.24-246.67 0 0 567.96 152.18 649.59 174.06 6.456 1.73 13.11 2.606 19.794 2.606h1127.4c92.981 0 182.15 36.937 247.9 102.68 65.748 65.747 102.68 154.92 102.68 247.9v0.035c0 12.712-5.05 24.904-14.039 33.893s-21.18 14.039-33.893 14.039h-1016.6z" fill="#ed1f60"/> <path d="m4440.9 4171.4h128.12l-181.85 181.85c-48.333 48.333-113.89 75.486-182.24 75.486h-407.36c43.997-13.903 85.917-35.056 123.91-63.11l37.226-27.485h246.22c44.326 0 86.836-17.608 118.18-48.951l117.79-117.79z"/> <path d="m4062 3906h863.9c64.545 0 126.45 25.64 172.09 71.28 25.672 25.672 45.017 56.49 57.029 90.029 4.262 11.899 17.382 18.099 29.281 13.838 11.899-4.262 18.099-17.382 13.837-29.281-14.273-39.851-37.258-76.468-67.762-106.97-54.229-54.229-127.78-84.695-204.47-84.695h-863.9c-12.639 0-22.9 10.262-22.9 22.901s10.261 22.9 22.9 22.9z" fill="#f83ab4"/> <path d="m4246.3 7840.5-546.36-2411.1 470.61-106.64 449.41 1983.3 1576.1-392.78 1487-2328.4-14.916-67.531c-8.592-38.898 15.976-77.397 54.875-85.989 89.009-19.66 241.31-53.301 330.32-72.961 38.898-8.592 77.396 15.977 85.988 54.875l1203.6 5448.9h1015.3v482.54h-8139.8v-482.54h882.49l1145.5-2021.6zm-590.84 2021.6h5193.3l-1018.5-4611.1-1330.9 2084-1644.1 409.72-1199.7 2117.4z"/> <path d="m9028.2 2554.7c7.117-128.3 23.155-407.3 31.656-477.24 14.662-120.62 113.28-148.22 123.64-150.68 84.963-20.181 170.33 32.414 190.51 117.38 5.949 25.047 5.574 50.129-0.137 73.557l-33.225 518.9c-2.206 41.687-20.796 80.814-51.721 108.86l-904.23 730.58c-27.233 24.694-62.215 39.134-98.936 40.842l-761.09 35.383c-87.233 4.056-161.35-63.474-165.4-150.71-4.055-87.233 63.474-161.35 150.71-165.4l704.28-32.743 813.95-648.72z" fill="#003243"/> <path d="m7971.3 3074.1c-4.441-19.443-23.802-31.605-43.245-27.164-124.55 28.444-543.5 124.12-668.05 152.57-19.443 4.44-31.605 23.802-27.164 43.245 26.943 117.98 113.86 498.55 140.8 616.53 4.44 19.443 23.801 31.605 43.244 27.165 124.55-28.444 543.5-124.13 668.05-152.57 19.443-4.441 31.605-23.802 27.165-43.245-26.944-117.98-113.86-498.55-140.8-616.53z" fill="#8aacbc"/> <path d="m7967.5 3760.6 60.528 265.03-433.22 98.939-60.528-265.03 433.22-98.938z" fill="#636363"/> <path d="m8008.9 4030.1 74.931 328.1c-9.757-2.067-20.099-2.134-30.469 0.157-89.01 19.66-241.31 53.301-330.32 72.961-13.187 2.913-24.727 9.262-33.881 17.897l-75.123-328.93 394.86-90.179z" fill="#d8e0eb"/> <rect x="2218.3" y="10345" width="8139.8" height="231.2" fill="#002532"/> <circle cx="8501.5" cy="7939.9" r="1750.6" fill="#d8e0eb"/> <path d="m9200.8 6728.8c668.43 385.92 897.8 1241.9 511.88 1910.4-385.92 668.43-1241.9 897.8-1910.4 511.88-668.43-385.92-897.8-1241.9-511.88-1910.4 385.92-668.43 1241.9-897.8 1910.4-511.88z" fill="#55788b"/> <path d="m9712.6 8639.2c-385.92 668.43-1241.9 897.8-1910.4 511.88-668.43-385.92-897.8-1241.9-511.88-1910.4l2422.2 1398.5z" fill="#003243"/> <path d="m7130.7 7661.8c-86.094 424.86 31.234 869.09 315.32 1196-123.24 25.757-251.6 52.559-382.7 79.9-196.87-283.07-312.35-627.02-312.35-997.73 0-86.374 6.269-171.3 18.365-254.23l361.37-23.892z" fill="#b7d1f4"/> <path d="m8529 6370.2c532.35 10.019 1046.7 290.42 1332.1 784.74 17.014 29.469 54.752 39.581 84.221 22.567s39.581-54.753 22.567-84.222c-307.78-533.1-862.49-835.57-1436.6-846.37-34.022-0.641-62.163 26.461-62.803 60.483-0.641 34.022 26.461 62.164 60.483 62.804z" fill="#fbfefd"/> <path d="m8061.7 4582.2 297.71 1347.3c2.716 12.29 14.899 20.064 27.19 17.348 12.29-2.716 20.063-14.899 17.348-27.189l-297.71-1347.3c-2.716-12.291-14.899-20.064-27.189-17.348-12.291 2.715-20.064 14.898-17.348 27.189z" fill="#415e6e"/> <path d="m4157.6 5872.7 297.71 1347.3c2.716 12.29 14.899 20.063 27.19 17.348 12.29-2.716 20.063-14.899 17.348-27.19l-297.71-1347.3c-2.716-12.29-14.899-20.063-27.189-17.348-12.291 2.716-20.064 14.899-17.348 27.19z" fill="#415e6e"/> <path d="m7130.7 7661.8 797.73-52.742 1082.7 625.11c-52.461 197.26-216.54 349.24-420.36 384.06-8.363 1.429-506.1 106.07-1144.8 239.54-284.08-326.88-401.4-771.06-315.32-1196z" fill="#002532"/> <path d="m4655.9 7667v-0.094l3775.5-249.61c22.948-3.06 46.387-4.64 70.193-4.64 291.02 0 527.3 236.27 527.3 527.29 0 260.6-189.45 477.29-438.02 519.76-23.256 3.973-3831.2 806.17-3934.4 807.77l-0.497 0.102v-0.094c-4.027 0.064-8.083 0.094-12.147 0.094-441.72 0-800.34-358.62-800.34-800.34s358.62-800.34 800.34-800.34c4.064 0 8.12 0.03 12.147 0.094z" fill="#d8e0eb"/> <path d="m5171.2 7632.8 1960.7 1132c-1094.6 228.38-2415.3 501.71-2475.5 502.64l-0.497 0.102v-0.094c-4.027 0.064-8.083 0.094-12.147 0.094-441.72 0-800.34-358.62-800.34-800.34s358.62-800.34 800.34-800.34c4.064 0 8.12 0.03 12.147 0.094v-0.094l515.36-34.072z" fill="#55788b"/> <circle cx="4643.7" cy="8467.2" r="527.3" fill="#55788b"/> <circle cx="8501.5" cy="7939.9" r="154.87"/> <path d="m5100.4 8730.9c-145.51 252.03-468.26 338.51-720.3 193-252.03-145.51-338.52-468.27-193-720.3l913.3 527.29z" fill="#003243"/> <path d="m4643.7 7898.1c-314.11 0-569.13 255.02-569.13 569.13s255.02 569.13 569.13 569.13 569.13-255.02 569.13-569.13-255.02-569.13-569.13-569.13zm0 83.674c267.93 0 485.46 217.53 485.46 485.46s-217.53 485.46-485.46 485.46-485.46-217.53-485.46-485.46 217.53-485.46 485.46-485.46z" fill="#d8e0eb"/> <path d="m4747.8 8396.5c0-18.41-14.923-33.334-33.333-33.334h-141.49c-18.41 0-33.334 14.924-33.334 33.334v1125.3h208.16v-1125.3z" fill="#c0c0c0"/> <path d="m5050 9472.6c0-8.668-3.444-16.981-9.573-23.11s-14.442-9.572-23.109-9.572h-747.15c-8.668 0-16.981 3.443-23.11 9.572s-9.572 14.442-9.572 23.11v142.79c0 8.667 3.443 16.98 9.572 23.109s14.442 9.573 23.11 9.573h747.15c8.667 0 16.98-3.444 23.109-9.573s9.573-14.442 9.573-23.109v-142.79z"/> <circle cx="4643.7" cy="8467.2" r="90.639"/> <path d="m9412.2 2792.9c36.574-123.18 116.65-390.92 141.09-457.01 42.14-113.97 144.47-118.03 155.11-118.03 87.327 0 158.23 70.898 158.23 158.22 0 25.744-6.162 50.06-17.132 71.535l-152.24 497.17c-11.779 40.049-38.908 73.821-75.476 93.956l-1184.6 652.31c-32.202 17.732-69.574 23.698-105.7 16.872l-748.66-141.46c-85.809-16.214-142.31-99.043-126.1-184.85 16.213-85.809 99.042-142.31 184.85-126.1l692.78 130.9 1077.9-593.53z" fill="#55788b"/> <path d="m4279.6 5286.4h-1836.4v356.72h1902.5l-66.058-356.72z" fill="#636363"/> <rect x="2882.5" y="5643.2" width="125.51" height="112.3" fill="#979797"/> <path d="m3152.2 5773.3c0-4.742-1.884-9.29-5.237-12.643s-7.901-5.237-12.643-5.237h-410.13c-4.742 0-9.29 1.884-12.643 5.237s-5.237 7.901-5.237 12.643v76.54c0 4.742 1.884 9.29 5.237 12.643s7.901 5.237 12.643 5.237h410.13c4.742 0 9.29-1.884 12.643-5.237s5.237-7.901 5.237-12.643v-76.54z" fill="#353535"/> <path d="m7438.7 4690.5c6.667-9.377 4.47-22.384-4.907-29.051-17.693-12.58-45.256-32.178-62.949-44.758-9.377-6.667-22.384-4.47-29.051 4.907-49.388 69.461-235.76 331.58-285.15 401.04-6.667 9.377-4.471 22.384 4.907 29.051 17.693 12.58 45.255 32.178 62.948 44.758 9.378 6.667 22.384 4.471 29.052-4.907 49.388-69.461 235.76-331.58 285.15-401.04z" fill="#ed1f60"/> <path d="m6491.6 6298.7-168.85 258.64c-5.256 8.052-15.296 11.525-24.404 8.442 0 0-109.51-37.15-188.28-105.67-56.42-49.08-96.455-113.88-78.808-191.19 23.178-101.55 111.63-195.28 210.68-270.21 128.48-97.199 273.51-163.29 303.99-176.7 5.354-9.071 15.96-33.339-5.1-57.837-49.58-57.672-68.878-104.24-70.121-135.1-1.175-29.213 11.579-48.108 30.982-57.099 16.624-7.704 40.481-7.838 67.932 4.045 33.368 14.445 73.959 47.286 111.56 102.6 40.545 59.642 44.805 100.49 35.107 130.16-9.798 29.975-35.222 50.314-60.93 68.251-53.011 36.988-256.62 147.02-386.11 274.83-55.239 54.521-90.555 110.35-104.3 152.08-3.955 12.014-6.08 22.613-5.933 31.366 0.073 4.338 0.109 8.033 2.245 10.251 62.441 64.842 145.4 97.609 178.41 108.76l435.83-667.58c6.359-9.74 19.429-12.485 29.169-6.127 9.74 6.359 12.486 19.43 6.127 29.17l-193.21 295.95 66.912 42.666-124.04 194.23-68.865-43.912zm-175.6 191.87c-41.537-15.196-122.64-50.927-185.1-115.79-11.412-11.851-17.137-32.74-12.074-60.572 8.644-47.526 48.903-121.39 120.81-192.36 131.44-129.73 337.8-241.86 391.6-279.4 18.236-12.723 38.035-25.516 44.985-46.778 7.052-21.575-0.416-49.994-29.901-93.366-31.78-46.747-65.247-75.406-93.448-87.614-13.619-5.896-25.217-8.306-33.464-4.484-8.209 3.804-8.197 14.246-4.998 28.569 5.557 24.879 23.887 57.788 58.378 97.908 49.855 57.993 3.617 115.35 3.617 115.35-2.189 2.742-5.028 4.894-8.259 6.261 0 0-160.54 67.923-300.78 174.02-90.745 68.65-173.78 152.94-195.01 245.98-13.964 61.179 20.733 111.18 65.378 150.01 55.641 48.402 127.92 79.79 158.93 91.898l19.343-29.628z"/> <path d="m7460.4 4933.4-65.5 102.57-134.07-95.323 70.433-99.06 129.13 91.815z" fill="#d8e0eb"/> </svg>